<?xml version="1.0" encoding="UTF-8"?>
<svg width="190.71" height="161.73" version="1.1" viewBox="0 0 190.71 161.73" xmlns="http://www.w3.org/2000/svg">
 <!-- Matrix cells with leading dimension -->
 <g transform="matrix(.4787 0 0 .46133 27.709 .23066)">
  <!-- Leading Dimension Brace -->
  <path d="m-20 0q-15 175 0 350" fill="none" stroke="#000" stroke-width="2"/>
  <text transform="rotate(-90,-45,175)" x="-45" y="175" font-family="Arial" font-size="18px" text-anchor="middle">Leading Dimension</text>
  <g fill="none" stroke="#808080">
   <!-- Empty cells (row 0) -->
   <rect width="40" height="40"/>
   <rect x="50" width="40" height="40"/>
   <rect x="100" width="40" height="40"/>
   <rect x="150" width="40" height="40"/>
   <rect x="200" width="40" height="40"/>
   <rect x="250" width="40" height="40"/>
   <rect x="300" width="40" height="40"/>
   <!-- Empty cells (row 1) -->
   <rect y="50" width="40" height="40"/>
   <rect x="50" y="50" width="40" height="40"/>
   <rect x="100" y="50" width="40" height="40"/>
   <rect x="150" y="50" width="40" height="40"/>
   <rect x="200" y="50" width="40" height="40"/>
   <rect x="250" y="50" width="40" height="40"/>
   <rect x="300" y="50" width="40" height="40"/>
   <!-- Row 2 -->
   <rect y="100" width="40" height="40"/>
   <rect x="50" y="100" width="40" height="40"/>
  </g>
  <g stroke="#808080">
   <rect x="100" y="100" width="40" height="40" fill="#c6e2ff"/>
   <rect x="150" y="100" width="40" height="40" fill="#b3d9ff"/>
   <rect x="200" y="100" width="40" height="40" fill="#a3d1ff"/>
  </g>
  <g fill="none" stroke="#808080">
   <rect x="250" y="100" width="40" height="40"/>
   <rect x="300" y="100" width="40" height="40"/>
   <!-- Row 3 -->
   <rect y="150" width="40" height="40"/>
   <rect x="50" y="150" width="40" height="40"/>
  </g>
  <g stroke="#808080">
   <rect x="100" y="150" width="40" height="40" fill="#9dcaff"/>
   <rect x="150" y="150" width="40" height="40" fill="#80b3ff"/>
   <rect x="200" y="150" width="40" height="40" fill="#66a3ff"/>
  </g>
  <g fill="none" stroke="#808080">
   <rect x="250" y="150" width="40" height="40"/>
   <rect x="300" y="150" width="40" height="40"/>
   <!-- Row 4 -->
   <rect y="200" width="40" height="40"/>
   <rect x="50" y="200" width="40" height="40"/>
  </g>
  <g stroke="#808080">
   <rect x="100" y="200" width="40" height="40" fill="#4d94ff"/>
   <rect x="150" y="200" width="40" height="40" fill="#3385ff"/>
   <rect x="200" y="200" width="40" height="40" fill="#1a75ff"/>
  </g>
  <g fill="none" stroke="#808080">
   <rect x="250" y="200" width="40" height="40"/>
   <rect x="300" y="200" width="40" height="40"/>
   <!-- Empty cells (row 5) -->
   <rect y="250" width="40" height="40"/>
   <rect x="50" y="250" width="40" height="40"/>
   <rect x="100" y="250" width="40" height="40"/>
   <rect x="150" y="250" width="40" height="40"/>
   <rect x="200" y="250" width="40" height="40"/>
   <rect x="250" y="250" width="40" height="40"/>
   <rect x="300" y="250" width="40" height="40"/>
   <!-- Empty cells (row 6) -->
   <rect y="300" width="40" height="40"/>
   <rect x="50" y="300" width="40" height="40"/>
   <rect x="100" y="300" width="40" height="40"/>
   <rect x="150" y="300" width="40" height="40"/>
   <rect x="200" y="300" width="40" height="40"/>
   <rect x="250" y="300" width="40" height="40"/>
   <rect x="300" y="300" width="40" height="40"/>
   <!-- Values -->
  </g>
  <g font-family="Arial" font-size="18px" text-anchor="middle">
   <text x="120" y="125">9</text>
   <text x="170" y="125">16</text>
   <text x="220" y="125">21</text>
   <text x="120" y="175">30</text>
   <text x="170" y="175">39</text>
   <text x="220" y="175">48</text>
   <text x="120" y="225">51</text>
   <text x="170" y="225">62</text>
   <text x="220" y="225">73</text>
  </g>
  <g fill="none" stroke="#ff4d4d" stroke-width="2">
   <!-- Column-major access pattern with arrows -->
   <!-- First column: 9-30-51 -->
   <path d="m120 130v20"/>
   <path d="m120 150-5-5 5 5 5-5"/>
   <path d="m120 180v20"/>
   <path d="m120 200-5-5 5 5 5-5"/>
   <!-- Second column: 16-39-62 -->
   <path d="m170 130v20"/>
   <path d="m170 150-5-5 5 5 5-5"/>
   <path d="m170 180v20"/>
   <path d="m170 200-5-5 5 5 5-5"/>
   <!-- Third column: 21-48-73 -->
   <path d="m220 130v20"/>
   <path d="m220 150-5-5 5 5 5-5"/>
   <path d="m220 180v20"/>
   <path d="m220 200-5-5 5 5 5-5"/>
  </g>
 </g>
</svg>
