<?xml version="1.0" encoding="UTF-8" standalone="no"?>
<svg
   width="432.81763"
   height="347.36816"
   version="1.1"
   viewBox="0 0 432.81761 347.36817"
   id="svg69"
   sodipodi:docname="column_major.svg"
   inkscape:version="1.4 (86a8ad7, 2024-10-11)"
   xmlns:inkscape="http://www.inkscape.org/namespaces/inkscape"
   xmlns:sodipodi="http://sodipodi.sourceforge.net/DTD/sodipodi-0.dtd"
   xmlns="http://www.w3.org/2000/svg"
   xmlns:svg="http://www.w3.org/2000/svg">
  <defs
     id="defs69" />
  <sodipodi:namedview
     id="namedview69"
     pagecolor="#ffffff"
     bordercolor="#000000"
     borderopacity="0.25"
     inkscape:showpageshadow="2"
     inkscape:pageopacity="0.0"
     inkscape:pagecheckerboard="0"
     inkscape:deskcolor="#d1d1d1"
     inkscape:zoom="1.76416"
     inkscape:cx="186.77444"
     inkscape:cy="209.73154"
     inkscape:window-width="1147"
     inkscape:window-height="1032"
     inkscape:window-x="2338"
     inkscape:window-y="0"
     inkscape:window-maximized="0"
     inkscape:current-layer="svg69" />
  <!-- Matrix cells with leading dimension -->
  <g
     transform="matrix(1.0864312,0,0,0.99082322,62.887815,0.49541161)"
     id="g69">
    <!-- Leading Dimension Brace -->
    <path
       d="m -20,0 q -15,175 0,350"
       fill="none"
       stroke="#000000"
       stroke-width="2"
       id="path1" />
    <text
       transform="rotate(-90,-45,175)"
       x="-45"
       y="175"
       font-family="Arial"
       font-size="18px"
       text-anchor="middle"
       id="text1">Leading Dimension</text>
    <g
       fill="none"
       stroke="#808080"
       id="g16">
      <!-- Empty cells (row 0) -->
      <rect
         width="40"
         height="40"
         id="rect1"
         x="0"
         y="0" />
      <rect
         x="50"
         width="40"
         height="40"
         id="rect2"
         y="0" />
      <rect
         x="100"
         width="40"
         height="40"
         id="rect3"
         y="0" />
      <rect
         x="150"
         width="40"
         height="40"
         id="rect4"
         y="0" />
      <rect
         x="200"
         width="40"
         height="40"
         id="rect5"
         y="0" />
      <rect
         x="250"
         width="40"
         height="40"
         id="rect6"
         y="0" />
      <rect
         x="300"
         width="40"
         height="40"
         id="rect7"
         y="0" />
      <!-- Empty cells (row 1) -->
      <rect
         y="50"
         width="40"
         height="40"
         id="rect8"
         x="0" />
      <rect
         x="50"
         y="50"
         width="40"
         height="40"
         id="rect9" />
      <rect
         x="100"
         y="50"
         width="40"
         height="40"
         id="rect10" />
      <rect
         x="150"
         y="50"
         width="40"
         height="40"
         id="rect11" />
      <rect
         x="200"
         y="50"
         width="40"
         height="40"
         id="rect12" />
      <rect
         x="250"
         y="50"
         width="40"
         height="40"
         id="rect13" />
      <rect
         x="300"
         y="50"
         width="40"
         height="40"
         id="rect14" />
      <!-- Row 2 -->
      <rect
         y="100"
         width="40"
         height="40"
         id="rect15"
         x="0" />
      <rect
         x="50"
         y="100"
         width="40"
         height="40"
         id="rect16" />
    </g>
    <g
       stroke="#808080"
       id="g19">
      <rect
         x="100"
         y="100"
         width="40"
         height="40"
         fill="#c6e2ff"
         id="rect17" />
      <rect
         x="150"
         y="100"
         width="40"
         height="40"
         fill="#b3d9ff"
         id="rect18" />
      <rect
         x="200"
         y="100"
         width="40"
         height="40"
         fill="#a3d1ff"
         id="rect19" />
    </g>
    <g
       fill="none"
       stroke="#808080"
       id="g23">
      <rect
         x="250"
         y="100"
         width="40"
         height="40"
         id="rect20" />
      <rect
         x="300"
         y="100"
         width="40"
         height="40"
         id="rect21" />
      <!-- Row 3 -->
      <rect
         y="150"
         width="40"
         height="40"
         id="rect22"
         x="0" />
      <rect
         x="50"
         y="150"
         width="40"
         height="40"
         id="rect23" />
    </g>
    <g
       stroke="#808080"
       id="g26">
      <rect
         x="100"
         y="150"
         width="40"
         height="40"
         fill="#9dcaff"
         id="rect24" />
      <rect
         x="150"
         y="150"
         width="40"
         height="40"
         fill="#80b3ff"
         id="rect25" />
      <rect
         x="200"
         y="150"
         width="40"
         height="40"
         fill="#66a3ff"
         id="rect26" />
    </g>
    <g
       fill="none"
       stroke="#808080"
       id="g30">
      <rect
         x="250"
         y="150"
         width="40"
         height="40"
         id="rect27" />
      <rect
         x="300"
         y="150"
         width="40"
         height="40"
         id="rect28" />
      <!-- Row 4 -->
      <rect
         y="200"
         width="40"
         height="40"
         id="rect29"
         x="0" />
      <rect
         x="50"
         y="200"
         width="40"
         height="40"
         id="rect30" />
    </g>
    <g
       stroke="#808080"
       id="g33">
      <rect
         x="100"
         y="200"
         width="40"
         height="40"
         fill="#4d94ff"
         id="rect31" />
      <rect
         x="150"
         y="200"
         width="40"
         height="40"
         fill="#3385ff"
         id="rect32" />
      <rect
         x="200"
         y="200"
         width="40"
         height="40"
         fill="#1a75ff"
         id="rect33" />
    </g>
    <g
       fill="none"
       stroke="#808080"
       id="g49">
      <rect
         x="250"
         y="200"
         width="40"
         height="40"
         id="rect34" />
      <rect
         x="300"
         y="200"
         width="40"
         height="40"
         id="rect35" />
      <!-- Empty cells (row 5) -->
      <rect
         y="250"
         width="40"
         height="40"
         id="rect36"
         x="0" />
      <rect
         x="50"
         y="250"
         width="40"
         height="40"
         id="rect37" />
      <rect
         x="100"
         y="250"
         width="40"
         height="40"
         id="rect38" />
      <rect
         x="150"
         y="250"
         width="40"
         height="40"
         id="rect39" />
      <rect
         x="200"
         y="250"
         width="40"
         height="40"
         id="rect40" />
      <rect
         x="250"
         y="250"
         width="40"
         height="40"
         id="rect41" />
      <rect
         x="300"
         y="250"
         width="40"
         height="40"
         id="rect42" />
      <!-- Empty cells (row 6) -->
      <rect
         y="300"
         width="40"
         height="40"
         id="rect43"
         x="0" />
      <rect
         x="50"
         y="300"
         width="40"
         height="40"
         id="rect44" />
      <rect
         x="100"
         y="300"
         width="40"
         height="40"
         id="rect45" />
      <rect
         x="150"
         y="300"
         width="40"
         height="40"
         id="rect46" />
      <rect
         x="200"
         y="300"
         width="40"
         height="40"
         id="rect47" />
      <rect
         x="250"
         y="300"
         width="40"
         height="40"
         id="rect48" />
      <rect
         x="300"
         y="300"
         width="40"
         height="40"
         id="rect49" />
      <!-- Values -->
    </g>
    <g
       font-family="Arial"
       font-size="18px"
       text-anchor="middle"
       id="g57">
      <text
         x="120"
         y="125"
         id="text49">9</text>
      <text
         x="170"
         y="125"
         id="text50">16</text>
      <text
         x="220"
         y="125"
         id="text51">21</text>
      <text
         x="120"
         y="175"
         id="text52">30</text>
      <text
         x="170"
         y="175"
         id="text53">39</text>
      <text
         x="220"
         y="175"
         id="text54">48</text>
      <text
         x="120"
         y="225"
         id="text55">51</text>
      <text
         x="170"
         y="225"
         id="text56">62</text>
      <text
         x="220"
         y="225"
         id="text57">73</text>
    </g>
    <g
       fill="none"
       stroke="#ff4d4d"
       stroke-width="2"
       id="g68">
      <!-- Column-major access pattern with arrows -->
      <!-- First column: 9-30-51 -->
      <path
         d="m 120,130 v 20"
         id="path57" />
      <path
         d="m 120,150 -5,-5 5,5 5,-5"
         id="path58" />
      <path
         d="m 120,180 v 20"
         id="path59" />
      <path
         d="m 120,200 -5,-5 5,5 5,-5"
         id="path60" />
      <!-- Second column: 16-39-62 -->
      <path
         d="m 170,130 v 20"
         id="path61" />
      <path
         d="m 170,150 -5,-5 5,5 5,-5"
         id="path62" />
      <path
         d="m 170,180 v 20"
         id="path63" />
      <path
         d="m 170,200 -5,-5 5,5 5,-5"
         id="path64" />
      <!-- Third column: 21-48-73 -->
      <path
         d="m 220,130 v 20"
         id="path65" />
      <path
         d="m 220,150 -5,-5 5,5 5,-5"
         id="path66" />
      <path
         d="m 220,180 v 20"
         id="path67" />
      <path
         d="m 220,200 -5,-5 5,5 5,-5"
         id="path68" />
    </g>
  </g>
</svg>
