<svg width="1280" height="720" xmlns="http://www.w3.org/2000/svg" xmlns:xlink="http://www.w3.org/1999/xlink" overflow="hidden"><g><rect x="0" y="0" width="1280" height="720" fill="#FFFFFF"/><path d="M715 140C717.761 140 720 142.239 720 145L720 195C720 197.761 717.761 200 715 200L565 200C562.239 200 560 197.761 560 195L560 145C560 142.239 562.239 140 565 140Z" stroke="#333333" stroke-width="2" stroke-miterlimit="8" fill="#FF8A65" fill-rule="evenodd"/><text font-family="MS Gothic,MS Gothic_MSFontService,sans-serif" font-weight="700" font-size="19" transform="translate(600.202 177)">CPU</text><text font-family="MS Gothic,MS Gothic_MSFontService,sans-serif" font-weight="700" font-size="19" transform="translate(637.535 177)">コア</text><path d="M695 220C697.761 220 700 222.239 700 225L700 255C700 257.761 697.761 260 695 260L585 260C582.239 260 580 257.761 580 255L580 225C580 222.239 582.239 220 585 220Z" stroke="#333333" stroke-width="2" stroke-miterlimit="8" fill="#FFB74D" fill-rule="evenodd"/><text font-family="MS Gothic,MS Gothic_MSFontService,sans-serif" font-weight="700" font-size="19" transform="translate(600.202 240)">レジスタ</text><text font-family="MS Gothic,MS Gothic_MSFontService,sans-serif" font-weight="700" font-size="15" transform="translate(607.584 255)">~1KB, 1ns</text><path d="M755 280C757.761 280 760 282.239 760 285L760 325C760 327.761 757.761 330 755 330L525 330C522.239 330 520 327.761 520 325L520 285C520 282.239 522.239 280 525 280Z" stroke="#333333" stroke-width="2" stroke-miterlimit="8" fill="#FFF176" fill-rule="evenodd"/><text font-family="MS Gothic,MS Gothic_MSFontService,sans-serif" font-weight="700" font-size="19" transform="translate(578.647 309)">L1</text><text font-family="MS Gothic,MS Gothic_MSFontService,sans-serif" font-weight="700" font-size="19" transform="translate(606.647 309)">キャッシュ</text><text font-family="MS Gothic,MS Gothic_MSFontService,sans-serif" font-weight="700" font-size="15" transform="translate(592.447 326)">32</text><text font-family="MS Gothic,MS Gothic_MSFontService,sans-serif" font-weight="700" font-size="15" transform="translate(607.113 326)">-</text><text font-family="MS Gothic,MS Gothic_MSFontService,sans-serif" font-weight="700" font-size="15" transform="translate(614.447 326)">64KB, 1</text><text font-family="MS Gothic,MS Gothic_MSFontService,sans-serif" font-weight="700" font-size="15" transform="translate(665.78 326)">-</text><text font-family="MS Gothic,MS Gothic_MSFontService,sans-serif" font-weight="700" font-size="15" transform="translate(673.113 326)">3ns</text><path d="M805 350C807.761 350 810 352.239 810 355L810 395C810 397.761 807.761 400 805 400L475 400C472.239 400 470 397.761 470 395L470 355C470 352.239 472.239 350 475 350Z" stroke="#333333" stroke-width="2" stroke-miterlimit="8" fill="#AED581" fill-rule="evenodd"/><text font-family="MS Gothic,MS Gothic_MSFontService,sans-serif" font-weight="700" font-size="19" transform="translate(577.811 370)">L2</text><text font-family="MS Gothic,MS Gothic_MSFontService,sans-serif" font-weight="700" font-size="19" transform="translate(605.811 370)">キャッシュ</text><text font-family="MS Gothic,MS Gothic_MSFontService,sans-serif" font-weight="700" font-size="15" transform="translate(579.885 397)">256KB</text><text font-family="MS Gothic,MS Gothic_MSFontService,sans-serif" font-weight="700" font-size="15" transform="translate(616.552 397)">-</text><text font-family="MS Gothic,MS Gothic_MSFontService,sans-serif" font-weight="700" font-size="15" transform="translate(623.885 397)">1MB, 3</text><text font-family="MS Gothic,MS Gothic_MSFontService,sans-serif" font-weight="700" font-size="15" transform="translate(667.885 397)">-</text><text font-family="MS Gothic,MS Gothic_MSFontService,sans-serif" font-weight="700" font-size="15" transform="translate(675.219 397)">10ns</text><path d="M855 420C857.761 420 860 422.239 860 425L860 465C860 467.761 857.761 470 855 470L425 470C422.239 470 420 467.761 420 465L420 425C420 422.239 422.239 420 425 420Z" stroke="#333333" stroke-width="2" stroke-miterlimit="8" fill="#4FC3F7" fill-rule="evenodd"/><text font-family="MS Gothic,MS Gothic_MSFontService,sans-serif" font-weight="700" font-size="19" transform="translate(579.647 449)">L3</text><text font-family="MS Gothic,MS Gothic_MSFontService,sans-serif" font-weight="700" font-size="19" transform="translate(607.647 449)">キャッシュ</text><text font-family="MS Gothic,MS Gothic_MSFontService,sans-serif" font-weight="700" font-size="15" transform="translate(590.703 464)">4</text><text font-family="MS Gothic,MS Gothic_MSFontService,sans-serif" font-weight="700" font-size="15" transform="translate(598.036 464)">-</text><text font-family="MS Gothic,MS Gothic_MSFontService,sans-serif" font-weight="700" font-size="15" transform="translate(605.369 464)">50MB, 10</text><text font-family="MS Gothic,MS Gothic_MSFontService,sans-serif" font-weight="700" font-size="15" transform="translate(664.036 464)">-</text><text font-family="MS Gothic,MS Gothic_MSFontService,sans-serif" font-weight="700" font-size="15" transform="translate(671.369 464)">20ns</text><path d="M935 490C937.761 490 940 492.239 940 495L940 545C940 547.761 937.761 550 935 550L345 550C342.239 550 340 547.761 340 545L340 495C340 492.239 342.239 490 345 490Z" stroke="#333333" stroke-width="2" stroke-miterlimit="8" fill="#B39DDB" fill-rule="evenodd"/><text font-family="MS Gothic,MS Gothic_MSFontService,sans-serif" font-weight="700" font-size="19" transform="translate(559.31 516)">メインメモリ</text><text font-family="Arial,Arial_MSFontService,sans-serif" font-weight="700" font-size="19" transform="translate(671.31 516)"></text><text font-family="Arial,Arial_MSFontService,sans-serif" font-weight="700" font-size="19" transform="translate(676.477 516)">(RAM)</text><text font-family="MS Gothic,MS Gothic_MSFontService,sans-serif" font-weight="700" font-size="15" transform="translate(580.5 543)">数</text><text font-family="Arial,Arial_MSFontService,sans-serif" font-weight="700" font-size="15" transform="translate(595.167 543)">GB</text><text font-family="Arial,Arial_MSFontService,sans-serif" font-weight="700" font-size="15" transform="translate(617.167 543)">-</text><text font-family="MS Gothic,MS Gothic_MSFontService,sans-serif" font-weight="700" font-size="15" transform="translate(622 543)">数</text><text font-family="Arial,Arial_MSFontService,sans-serif" font-weight="700" font-size="15" transform="translate(636.667 543)">TB, 50</text><text font-family="Arial,Arial_MSFontService,sans-serif" font-weight="700" font-size="15" transform="translate(680.667 543)">-</text><text font-family="Arial,Arial_MSFontService,sans-serif" font-weight="700" font-size="15" transform="translate(685.5 543)">100ns</text><path d="M985 570C987.761 570 990 572.239 990 575L990 635C990 637.761 987.761 640 985 640L295 640C292.239 640 290 637.761 290 635L290 575C290 572.239 292.239 570 295 570Z" stroke="#333333" stroke-width="2" stroke-miterlimit="8" fill="#90A4AE" fill-rule="evenodd"/><text font-family="MS Gothic,MS Gothic_MSFontService,sans-serif" font-weight="700" font-size="19" transform="translate(510 607)">ディスクストレージ</text><text font-family="Arial,Arial_MSFontService,sans-serif" font-weight="700" font-size="19" transform="translate(683.167 607)">(SSD/HDD)</text><text font-family="MS Gothic,MS Gothic_MSFontService,sans-serif" font-weight="700" font-size="15" transform="translate(574.5 631)">数百</text><text font-family="Arial,Arial_MSFontService,sans-serif" font-weight="700" font-size="15" transform="translate(603.833 631)">GB</text><text font-family="Arial,Arial_MSFontService,sans-serif" font-weight="700" font-size="15" transform="translate(625.833 631)">-</text><text font-family="MS Gothic,MS Gothic_MSFontService,sans-serif" font-weight="700" font-size="15" transform="translate(630.667 631)">数</text><text font-family="Arial,Arial_MSFontService,sans-serif" font-weight="700" font-size="15" transform="translate(645.333 631)">TB, μs</text><text font-family="Arial,Arial_MSFontService,sans-serif" font-weight="700" font-size="15" transform="translate(690.167 631)">-</text><text font-family="Arial,Arial_MSFontService,sans-serif" font-weight="700" font-size="15" transform="translate(695 631)">ms</text><path d="M640 200 640 220" stroke="#333333" stroke-width="2" stroke-miterlimit="8" fill="none" fill-rule="evenodd"/><path d="M640 260 640 280" stroke="#333333" stroke-width="2" stroke-miterlimit="8" fill="none" fill-rule="evenodd"/><path d="M640 330 640 350" stroke="#333333" stroke-width="2" stroke-miterlimit="8" fill="none" fill-rule="evenodd"/><path d="M640 400 640 420" stroke="#333333" stroke-width="2" stroke-miterlimit="8" fill="none" fill-rule="evenodd"/><path d="M640 470 640 490" stroke="#333333" stroke-width="2" stroke-miterlimit="8" fill="none" fill-rule="evenodd"/><path d="M640 550 640 570" stroke="#333333" stroke-width="2" stroke-miterlimit="8" fill="none" fill-rule="evenodd"/><text font-family="MS Gothic,MS Gothic_MSFontService,sans-serif" font-weight="700" font-size="32" transform="translate(805.987 173)">速度</text><text font-family="Arial,Arial_MSFontService,sans-serif" font-style="italic" font-weight="400" font-size="32" transform="translate(834.154 209)">↑</text><text font-family="MS Gothic,MS Gothic_MSFontService,sans-serif" font-weight="700" font-size="32" transform="translate(811.739 266)">高速</text><text font-family="Arial,Arial_MSFontService,sans-serif" font-style="italic" font-weight="400" font-size="32" transform="translate(835.974 314)">↓</text><text font-family="MS Gothic,MS Gothic_MSFontService,sans-serif" font-weight="700" font-size="32" transform="translate(811.739 365)">低速</text></g></svg>