<svg width="1280" height="720" xmlns="http://www.w3.org/2000/svg" xmlns:xlink="http://www.w3.org/1999/xlink" overflow="hidden"><g><rect x="0" y="0" width="1280" height="720" fill="#FFFFFF"/><path d="M197 240 434 240 434 436 197 436Z" stroke="#E65100" stroke-width="1.96661" stroke-miterlimit="8" fill="#FFF3E0" fill-rule="evenodd"/><text fill="#E65100" font-family="MS Gothic,MS Gothic_MSFontService,sans-serif" font-weight="700" font-size="18" transform="translate(203.898 212)">行列</text><text fill="#E65100" font-family="Arial,Arial_MSFontService,sans-serif" font-weight="700" font-size="18" transform="translate(239.565 212)"></text><text fill="#E65100" font-family="Arial,Arial_MSFontService,sans-serif" font-weight="700" font-size="18" transform="translate(244.565 212)">C(mR</text><text fill="#E65100" font-family="MS Gothic,MS Gothic_MSFontService,sans-serif" font-weight="700" font-size="18" transform="translate(296.898 212)">×</text><text fill="#E65100" font-family="Arial,Arial_MSFontService,sans-serif" font-weight="700" font-size="18" transform="translate(314.731 212)"></text><text fill="#E65100" font-family="Arial,Arial_MSFontService,sans-serif" font-weight="700" font-size="18" transform="translate(319.731 212)">nR)</text><path d="M640 141 788 141 788 377 640 377Z" stroke="#0288D1" stroke-width="1.96661" stroke-miterlimit="8" fill="#E1F5FE" fill-rule="evenodd"/><text fill="#0288D1" font-family="MS Gothic,MS Gothic_MSFontService,sans-serif" font-weight="700" font-size="18" transform="translate(616.257 118)">行列</text><text fill="#0288D1" font-family="Arial,Arial_MSFontService,sans-serif" font-weight="700" font-size="18" transform="translate(651.924 118)"></text><text fill="#0288D1" font-family="Arial,Arial_MSFontService,sans-serif" font-weight="700" font-size="18" transform="translate(656.924 118)">A</text><text fill="#0288D1" font-family="Arial,Arial_MSFontService,sans-serif" font-weight="700" font-size="18" transform="translate(669.757 118)"></text><text fill="#0288D1" font-family="Arial,Arial_MSFontService,sans-serif" font-weight="700" font-size="18" transform="translate(674.757 118)">(mR</text><text fill="#0288D1" font-family="MS Gothic,MS Gothic_MSFontService,sans-serif" font-weight="700" font-size="18" transform="translate(714.257 118)">×</text><text fill="#0288D1" font-family="Arial,Arial_MSFontService,sans-serif" font-weight="700" font-size="18" transform="translate(732.091 118)"></text><text fill="#0288D1" font-family="Arial,Arial_MSFontService,sans-serif" font-weight="700" font-size="18" transform="translate(737.091 118)">K)</text><path d="M591 436 827 436 827 584 591 584Z" stroke="#2E7D32" stroke-width="1.96661" stroke-miterlimit="8" fill="#E8F5E9" fill-rule="evenodd"/><text fill="#2E7D32" font-family="MS Gothic,MS Gothic_MSFontService,sans-serif" font-weight="700" font-size="18" transform="translate(614.624 418)">行列</text><text fill="#2E7D32" font-family="Arial,Arial_MSFontService,sans-serif" font-weight="700" font-size="18" transform="translate(650.29 418)"></text><text fill="#2E7D32" font-family="Arial,Arial_MSFontService,sans-serif" font-weight="700" font-size="18" transform="translate(655.29 418)">B (K</text><text fill="#2E7D32" font-family="MS Gothic,MS Gothic_MSFontService,sans-serif" font-weight="700" font-size="18" transform="translate(696.79 418)">×</text><text fill="#2E7D32" font-family="Arial,Arial_MSFontService,sans-serif" font-weight="700" font-size="18" transform="translate(714.624 418)"></text><text fill="#2E7D32" font-family="Arial,Arial_MSFontService,sans-serif" font-weight="700" font-size="18" transform="translate(719.624 418)">nR)</text><text fill="#E65100" font-family="Arial,Arial_MSFontService,sans-serif" font-weight="400" font-size="22" transform="translate(212.734 269)">c</text><text fill="#E65100" font-family="Cambria Math,Cambria Math_MSFontService,sans-serif" font-weight="400" font-size="22" transform="translate(223.734 269)">₀₀</text><text fill="#E65100" font-family="Arial,Arial_MSFontService,sans-serif" font-weight="400" font-size="22" transform="translate(261.941 269)">c</text><text fill="#E65100" font-family="Cambria Math,Cambria Math_MSFontService,sans-serif" font-weight="400" font-size="22" transform="translate(272.941 269)">₀₁</text><text fill="#E65100" font-family="Arial,Arial_MSFontService,sans-serif" font-weight="400" font-size="22" transform="translate(311.148 269)">c</text><text fill="#E65100" font-family="Cambria Math,Cambria Math_MSFontService,sans-serif" font-weight="400" font-size="22" transform="translate(322.148 269)">₀₂</text><text fill="#E65100" font-family="Arial,Arial_MSFontService,sans-serif" font-weight="400" font-size="22" transform="translate(365.768 270)">...</text><text fill="#E65100" font-family="Arial,Arial_MSFontService,sans-serif" font-weight="400" font-size="22" transform="translate(212.734 309)">c</text><text fill="#E65100" font-family="Cambria Math,Cambria Math_MSFontService,sans-serif" font-weight="400" font-size="22" transform="translate(223.734 309)">₁₀</text><text fill="#E65100" font-family="Arial,Arial_MSFontService,sans-serif" font-weight="400" font-size="22" transform="translate(261.941 309)">c</text><text fill="#E65100" font-family="Cambria Math,Cambria Math_MSFontService,sans-serif" font-weight="400" font-size="22" transform="translate(272.941 309)">₁₁</text><text fill="#E65100" font-family="Arial,Arial_MSFontService,sans-serif" font-weight="400" font-size="22" transform="translate(311.148 309)">c</text><text fill="#E65100" font-family="Cambria Math,Cambria Math_MSFontService,sans-serif" font-weight="400" font-size="22" transform="translate(322.148 309)">₁₂</text><text fill="#E65100" font-family="Arial,Arial_MSFontService,sans-serif" font-weight="400" font-size="22" transform="translate(365.768 310)">...</text><text fill="#E65100" font-family="Arial,Arial_MSFontService,sans-serif" font-weight="400" font-size="22" transform="translate(212.734 348)">c</text><text fill="#E65100" font-family="Cambria Math,Cambria Math_MSFontService,sans-serif" font-weight="400" font-size="22" transform="translate(223.734 348)">₂₀</text><text fill="#E65100" font-family="Arial,Arial_MSFontService,sans-serif" font-weight="400" font-size="22" transform="translate(261.941 348)">c</text><text fill="#E65100" font-family="Cambria Math,Cambria Math_MSFontService,sans-serif" font-weight="400" font-size="22" transform="translate(272.941 348)">₂₁</text><text fill="#E65100" font-family="Arial,Arial_MSFontService,sans-serif" font-weight="400" font-size="22" transform="translate(311.148 348)">c</text><text fill="#E65100" font-family="Cambria Math,Cambria Math_MSFontService,sans-serif" font-weight="400" font-size="22" transform="translate(322.148 348)">₂₂</text><text fill="#E65100" font-family="Arial,Arial_MSFontService,sans-serif" font-weight="400" font-size="22" transform="translate(365.768 349)">...</text><text fill="#E65100" font-family="Arial,Arial_MSFontService,sans-serif" font-weight="400" font-size="22" transform="translate(267.353 388)">...</text><text fill="#E65100" font-family="Arial,Arial_MSFontService,sans-serif" font-weight="400" font-size="22" transform="translate(267.353 413)">...</text><text fill="#0288D1" font-family="Arial,Arial_MSFontService,sans-serif" font-weight="400" font-size="22" transform="translate(650.185 171)">a</text><text fill="#0288D1" font-family="Cambria Math,Cambria Math_MSFontService,sans-serif" font-weight="400" font-size="22" transform="translate(662.351 171)">₀₀</text><text fill="#0288D1" font-family="Arial,Arial_MSFontService,sans-serif" font-weight="400" font-size="22" transform="translate(699.392 171)">a</text><text fill="#0288D1" font-family="Cambria Math,Cambria Math_MSFontService,sans-serif" font-weight="400" font-size="22" transform="translate(711.558 171)">₀₁</text><text fill="#0288D1" font-family="Arial,Arial_MSFontService,sans-serif" font-weight="400" font-size="22" transform="translate(748.599 171)">a</text><text fill="#0288D1" font-family="Cambria Math,Cambria Math_MSFontService,sans-serif" font-weight="400" font-size="22" transform="translate(760.766 171)">₀₂</text><text fill="#0288D1" font-family="Arial,Arial_MSFontService,sans-serif" font-weight="400" font-size="22" transform="translate(650.185 210)">a</text><text fill="#0288D1" font-family="Cambria Math,Cambria Math_MSFontService,sans-serif" font-weight="400" font-size="22" transform="translate(662.351 210)">₁₀</text><text fill="#0288D1" font-family="Arial,Arial_MSFontService,sans-serif" font-weight="400" font-size="22" transform="translate(699.392 210)">a</text><text fill="#0288D1" font-family="Cambria Math,Cambria Math_MSFontService,sans-serif" font-weight="400" font-size="22" transform="translate(711.558 210)">₁₁</text><text fill="#0288D1" font-family="Arial,Arial_MSFontService,sans-serif" font-weight="400" font-size="22" transform="translate(748.599 210)">a</text><text fill="#0288D1" font-family="Cambria Math,Cambria Math_MSFontService,sans-serif" font-weight="400" font-size="22" transform="translate(760.766 210)">₁₂</text><text fill="#0288D1" font-family="Arial,Arial_MSFontService,sans-serif" font-weight="400" font-size="22" transform="translate(650.185 250)">a</text><text fill="#0288D1" font-family="Cambria Math,Cambria Math_MSFontService,sans-serif" font-weight="400" font-size="22" transform="translate(662.351 250)">₂₀</text><text fill="#0288D1" font-family="Arial,Arial_MSFontService,sans-serif" font-weight="400" font-size="22" transform="translate(699.392 250)">a</text><text fill="#0288D1" font-family="Cambria Math,Cambria Math_MSFontService,sans-serif" font-weight="400" font-size="22" transform="translate(711.558 250)">₂₁</text><text fill="#0288D1" font-family="Arial,Arial_MSFontService,sans-serif" font-weight="400" font-size="22" transform="translate(748.599 250)">a</text><text fill="#0288D1" font-family="Cambria Math,Cambria Math_MSFontService,sans-serif" font-weight="400" font-size="22" transform="translate(760.766 250)">₂₂</text><text fill="#0288D1" font-family="Arial,Arial_MSFontService,sans-serif" font-weight="400" font-size="22" transform="translate(705.297 290)">...</text><text fill="#0288D1" font-family="Arial,Arial_MSFontService,sans-serif" font-weight="400" font-size="22" transform="translate(648.216 328)">a</text><text fill="#0288D1" font-family="Cambria Math,Cambria Math_MSFontService,sans-serif" font-weight="400" font-size="22" transform="translate(660.383 328)">ₘ₀</text><text fill="#0288D1" font-family="Arial,Arial_MSFontService,sans-serif" font-weight="400" font-size="22" transform="translate(697.424 328)">a</text><text fill="#0288D1" font-family="Cambria Math,Cambria Math_MSFontService,sans-serif" font-weight="400" font-size="22" transform="translate(709.59 328)">ₘ₁</text><text fill="#0288D1" font-family="Arial,Arial_MSFontService,sans-serif" font-weight="400" font-size="22" transform="translate(746.631 328)">a</text><text fill="#0288D1" font-family="Cambria Math,Cambria Math_MSFontService,sans-serif" font-weight="400" font-size="22" transform="translate(758.797 328)">ₘ₂</text><text fill="#2E7D32" font-family="Arial,Arial_MSFontService,sans-serif" font-weight="400" font-size="22" transform="translate(605.898 466)">b</text><text fill="#2E7D32" font-family="Cambria Math,Cambria Math_MSFontService,sans-serif" font-weight="400" font-size="22" transform="translate(618.065 466)">₀₀</text><text fill="#2E7D32" font-family="Arial,Arial_MSFontService,sans-serif" font-weight="400" font-size="22" transform="translate(655.105 466)">b</text><text fill="#2E7D32" font-family="Cambria Math,Cambria Math_MSFontService,sans-serif" font-weight="400" font-size="22" transform="translate(667.272 466)">₀₁</text><text fill="#2E7D32" font-family="Arial,Arial_MSFontService,sans-serif" font-weight="400" font-size="22" transform="translate(704.312 466)">b</text><text fill="#2E7D32" font-family="Cambria Math,Cambria Math_MSFontService,sans-serif" font-weight="400" font-size="22" transform="translate(716.479 466)">₀₂</text><text fill="#2E7D32" font-family="Arial,Arial_MSFontService,sans-serif" font-weight="400" font-size="22" transform="translate(759.424 467)">...</text><text fill="#2E7D32" font-family="Arial,Arial_MSFontService,sans-serif" font-weight="400" font-size="22" transform="translate(605.898 501)">b</text><text fill="#2E7D32" font-family="Cambria Math,Cambria Math_MSFontService,sans-serif" font-weight="400" font-size="22" transform="translate(618.065 501)">₁₀</text><text fill="#2E7D32" font-family="Arial,Arial_MSFontService,sans-serif" font-weight="400" font-size="22" transform="translate(655.105 501)">b</text><text fill="#2E7D32" font-family="Cambria Math,Cambria Math_MSFontService,sans-serif" font-weight="400" font-size="22" transform="translate(667.272 501)">₁₁</text><text fill="#2E7D32" font-family="Arial,Arial_MSFontService,sans-serif" font-weight="400" font-size="22" transform="translate(704.312 501)">b</text><text fill="#2E7D32" font-family="Cambria Math,Cambria Math_MSFontService,sans-serif" font-weight="400" font-size="22" transform="translate(716.479 501)">₁₂</text><text fill="#2E7D32" font-family="Arial,Arial_MSFontService,sans-serif" font-weight="400" font-size="22" transform="translate(759.424 502)">...</text><text fill="#2E7D32" font-family="Arial,Arial_MSFontService,sans-serif" font-weight="400" font-size="22" transform="translate(605.898 535)">b</text><text fill="#2E7D32" font-family="Cambria Math,Cambria Math_MSFontService,sans-serif" font-weight="400" font-size="22" transform="translate(618.065 535)">₂₀</text><text fill="#2E7D32" font-family="Arial,Arial_MSFontService,sans-serif" font-weight="400" font-size="22" transform="translate(655.105 535)">b</text><text fill="#2E7D32" font-family="Cambria Math,Cambria Math_MSFontService,sans-serif" font-weight="400" font-size="22" transform="translate(667.272 535)">₂₁</text><text fill="#2E7D32" font-family="Arial,Arial_MSFontService,sans-serif" font-weight="400" font-size="22" transform="translate(704.312 535)">b</text><text fill="#2E7D32" font-family="Cambria Math,Cambria Math_MSFontService,sans-serif" font-weight="400" font-size="22" transform="translate(716.479 535)">₂₂</text><text fill="#2E7D32" font-family="Arial,Arial_MSFontService,sans-serif" font-weight="400" font-size="22" transform="translate(759.424 536)">...</text><text fill="#2E7D32" font-family="Arial,Arial_MSFontService,sans-serif" font-weight="400" font-size="22" transform="translate(661.01 566)">...</text><path d="M626 141 626 377" stroke="#0288D1" stroke-width="1.96661" stroke-miterlimit="8" stroke-dasharray="7.3748 4.42488" fill="none" fill-rule="evenodd"/><text fill="#0288D1" font-family="Arial,Arial_MSFontService,sans-serif" font-weight="700" font-size="16" transform="translate(595.557 221)">mR</text><path d="M640 126 788 126" stroke="#0288D1" stroke-width="1.96661" stroke-miterlimit="8" stroke-dasharray="7.3748 4.42488" fill="none" fill-rule="evenodd"/><text fill="#0288D1" font-family="Arial,Arial_MSFontService,sans-serif" font-weight="700" font-size="16" transform="translate(705.297 139)">K</text><path d="M576 436 576 584" stroke="#2E7D32" stroke-width="1.96661" stroke-miterlimit="8" stroke-dasharray="7.3748 4.42488" fill="none" fill-rule="evenodd"/><text fill="#2E7D32" font-family="Arial,Arial_MSFontService,sans-serif" font-weight="700" font-size="16" transform="translate(545.976 507)">K</text><path d="M591 599 827 599" stroke="#2E7D32" stroke-width="1.96661" stroke-miterlimit="8" stroke-dasharray="7.3748 4.42488" fill="none" fill-rule="evenodd"/><text fill="#2E7D32" font-family="Arial,Arial_MSFontService,sans-serif" font-weight="700" font-size="16" transform="translate(688.782 620)">nR</text><path d="M183 240 183 436" stroke="#E65100" stroke-width="1.96661" stroke-miterlimit="8" stroke-dasharray="7.3748 4.42488" fill="none" fill-rule="evenodd"/><text fill="#E65100" font-family="Arial,Arial_MSFontService,sans-serif" font-weight="700" font-size="16" transform="translate(144.491 334)">mR</text><path d="M197 451 434 451" stroke="#E65100" stroke-width="1.96661" stroke-miterlimit="8" stroke-dasharray="7.3748 4.42488" fill="none" fill-rule="evenodd"/><text fill="#E65100" font-family="Arial,Arial_MSFontService,sans-serif" font-weight="700" font-size="16" transform="translate(295.125 472)">nR</text><path d="M783.769 195C785.554 195 787 196.343 787 198L787 217C787 218.657 785.554 220 783.769 220L650.231 220C648.447 220 647 218.657 647 217L647 198C647 196.343 648.447 195 650.231 195Z" fill="#0288D1" fill-rule="evenodd" fill-opacity="0.219608"/><path d="M684.92 447C687.173 447 689 448.333 689 449.977L689 573.023C689 574.667 687.173 576 684.92 576L659.08 576C656.827 576 655 574.667 655 573.023L655 449.977C655 448.333 656.827 447 659.08 447Z" fill="#2E7D32" fill-rule="evenodd" fill-opacity="0.419608"/><path d="M287.52 295C289.442 295 291 296.289 291 297.88L291 316.12C291 317.711 289.442 319 287.52 319L265.48 319C263.558 319 262 317.711 262 316.12L262 297.88C262 296.289 263.558 295 265.48 295Z" fill="#E65100" fill-rule="evenodd" fill-opacity="0.478431"/><path d="M630.541 223.353 619.682 225.46 619.12 222.564 629.979 220.457ZM608.822 227.568 597.962 229.675 597.401 226.779 608.26 224.672ZM587.138 231.87 576.304 234.106 575.708 231.217 586.542 228.981ZM565.47 236.342 554.637 238.578 554.04 235.689 564.874 233.453ZM543.84 240.905 533.034 243.27 532.403 240.388 543.209 238.024ZM522.227 245.634 511.42 247.999 510.79 245.117 521.596 242.753ZM500.653 250.459 489.876 252.952 489.211 250.078 499.989 247.585ZM479.098 255.444 468.32 257.937 467.656 255.063 478.433 252.57ZM457.584 260.53 446.837 263.151 446.138 260.285 456.886 257.664ZM436.09 265.771 425.342 268.392 424.644 265.526 435.391 262.905ZM414.639 271.117 403.924 273.865 403.191 271.007 413.907 268.26ZM393.208 276.613 382.493 279.361 381.76 276.503 392.476 273.755ZM371.824 282.218 361.142 285.093 360.375 282.244 371.058 279.369ZM350.46 287.967 339.778 290.842 339.011 287.994 349.693 285.119ZM329.145 293.831 318.498 296.832 317.697 293.993 328.345 290.991ZM307.85 299.833 303.998 300.919 303.198 298.08 307.05 296.994ZM627.969 217.842 637.5 220.5 629.655 226.53ZM306.218 303.358 296.5 301.5 303.817 294.84Z" fill="#0288D1"/><path d="M639.99 495.096 629.275 492.346 630.008 489.489 640.723 492.238ZM618.582 489.354 607.95 486.297 608.766 483.462 619.397 486.519ZM597.35 482.996 586.807 479.648 587.7 476.836 598.243 480.185ZM576.301 476.065 565.849 472.44 566.816 469.653 577.267 473.278ZM555.435 468.603 545.078 464.715 546.115 461.954 556.472 465.842ZM534.753 460.649 524.494 456.512 525.597 453.776 535.856 457.913ZM514.255 452.237 504.093 447.865 505.259 445.155 515.421 449.527ZM493.936 443.402 483.874 438.807 485.099 436.124 495.162 440.719ZM473.794 434.175 463.83 429.369 465.112 426.712 475.076 431.518ZM453.867 424.562 452.129 423.724 443.959 419.577 445.294 416.947 453.451 421.087 453.425 421.074 455.149 421.905ZM434.094 414.571 429.054 412.013 424.253 409.459 425.638 406.854 430.427 409.402 430.402 409.389 435.429 411.94ZM414.486 404.263 405.698 399.587 404.706 399.036 406.14 396.458 407.119 397.002 407.095 396.989 415.872 401.659ZM395.038 393.661 385.369 388.286 386.802 385.708 396.471 391.083ZM375.741 382.786 366.169 377.242 367.648 374.689 377.22 380.234ZM356.591 371.658 347.114 365.952 348.635 363.425 358.113 369.131ZM337.637 360.246 333.938 358.02 328.196 354.435 329.759 351.932 335.491 355.511 335.47 355.498 339.158 357.719ZM318.813 348.576 309.455 342.734 309.411 342.705 311.011 340.227 311.047 340.25 311.027 340.238 320.375 346.074ZM300.119 336.701 290.894 330.741 292.495 328.263 301.72 334.224ZM640.028 489.014 647.5 495.5 637.828 497.587ZM290.532 334.019 285.5 325.5 295.335 326.586Z" fill="#2E7D32"/><text fill="#0288D1" font-family="Arial,Arial_MSFontService,sans-serif" font-weight="700" font-size="13" transform="matrix(0.984808 -0.173648 0.173648 0.984808 455.243 238)">A</text><text fill="#0288D1" font-family="MS Gothic,MS Gothic_MSFontService,sans-serif" font-weight="700" font-size="14" transform="matrix(0.984808 -0.173648 0.173648 0.984808 464.763 237)">の</text><text fill="#0288D1" font-family="Arial,Arial_MSFontService,sans-serif" font-weight="700" font-size="13" transform="matrix(0.984808 -0.173648 0.173648 0.984808 478.222 234)">1</text><text fill="#0288D1" font-family="MS Gothic,MS Gothic_MSFontService,sans-serif" font-weight="700" font-size="14" transform="matrix(0.984808 -0.173648 0.173648 0.984808 485.444 233)">行</text><text fill="#0288D1" font-family="Arial,Arial_MSFontService,sans-serif" font-weight="700" font-size="13" transform="matrix(0.984808 -0.173648 0.173648 0.984808 498.903 231)">(K</text><text fill="#0288D1" font-family="MS Gothic,MS Gothic_MSFontService,sans-serif" font-weight="700" font-size="14" transform="matrix(0.984808 -0.173648 0.173648 0.984808 512.854 228)">要素</text><text fill="#0288D1" font-family="Arial,Arial_MSFontService,sans-serif" font-weight="700" font-size="13" transform="matrix(0.984808 -0.173648 0.173648 0.984808 539.772 223)">)</text><text fill="#2E7D32" font-family="Arial,Arial_MSFontService,sans-serif" font-weight="700" font-size="13" transform="matrix(0.882502 0.470309 -0.470309 0.882502 440.737 393)">B</text><text fill="#2E7D32" font-family="MS Gothic,MS Gothic_MSFontService,sans-serif" font-weight="700" font-size="14" transform="matrix(0.882502 0.470309 -0.470309 0.882502 449.268 397)">の</text><text fill="#2E7D32" font-family="Arial,Arial_MSFontService,sans-serif" font-weight="700" font-size="13" transform="matrix(0.882502 0.470309 -0.470309 0.882502 461.328 404)">1</text><text fill="#2E7D32" font-family="MS Gothic,MS Gothic_MSFontService,sans-serif" font-weight="700" font-size="14" transform="matrix(0.882502 0.470309 -0.470309 0.882502 467.8 407)">列</text><text fill="#2E7D32" font-family="Arial,Arial_MSFontService,sans-serif" font-weight="700" font-size="13" transform="matrix(0.882502 0.470309 -0.470309 0.882502 479.861 414)">(K</text><text fill="#2E7D32" font-family="MS Gothic,MS Gothic_MSFontService,sans-serif" font-weight="700" font-size="14" transform="matrix(0.882502 0.470309 -0.470309 0.882502 492.363 420)">要素</text><text fill="#2E7D32" font-family="Arial,Arial_MSFontService,sans-serif" font-weight="700" font-size="13" transform="matrix(0.882502 0.470309 -0.470309 0.882502 516.485 433)">)</text><text fill="#E65100" font-family="Arial,Arial_MSFontService,sans-serif" font-weight="700" font-size="13" transform="translate(236.845 234)">C̄</text><text fill="#E65100" font-family="MS Gothic,MS Gothic_MSFontService,sans-serif" font-weight="700" font-size="14" transform="translate(246.512 234)">要素</text><text fill="#E65100" font-family="Arial,Arial_MSFontService,sans-serif" font-weight="700" font-size="13" transform="translate(273.845 234)">c</text><text fill="#E65100" font-family="Cambria Math,Cambria Math_MSFontService,sans-serif" font-weight="700" font-size="14" transform="translate(281.178 234)">₁₁</text><text fill="#E65100" font-family="MS Gothic,MS Gothic_MSFontService,sans-serif" font-weight="700" font-size="14" transform="translate(292.178 234)">の</text><text fill="#E65100" font-family="MS Gothic,MS Gothic_MSFontService,sans-serif" font-weight="700" font-size="14" transform="translate(305.845 234)">計算</text></g></svg>